<svg class="svg-icon" style="width: 1em; height: 1em;vertical-align: middle;fill: currentColor;overflow: hidden;" viewBox="0 0 1024 1024" version="1.1" xmlns="http://www.w3.org/2000/svg"><path d="M640 1024 42.666667 1024c-25.6 0-42.666667-17.066667-42.666667-42.666667L0 42.666667c0-25.6 17.066667-42.666667 42.666667-42.666667l597.333333 0c25.6 0 42.666667 17.066667 42.666667 42.666667l0 298.666667c0 25.6-17.066667 42.666667-42.666667 42.666667s-42.666667-17.066667-42.666667-42.666667L597.333333 85.333333 85.333333 85.333333l0 853.333333 512 0 0-256c0-25.6 17.066667-42.666667 42.666667-42.666667s42.666667 17.066667 42.666667 42.666667l0 298.666667C682.666667 1006.933333 665.6 1024 640 1024z"  /><path d="M981.333333 554.666667 341.333333 554.666667c-25.6 0-42.666667-17.066667-42.666667-42.666667s17.066667-42.666667 42.666667-42.666667l640 0c25.6 0 42.666667 17.066667 42.666667 42.666667S1006.933333 554.666667 981.333333 554.666667z"  /><path d="M981.333333 554.666667c-12.8 0-21.333333-4.266667-29.866667-12.8l-170.666667-170.666667c-17.066667-17.066667-17.066667-42.666667 0-59.733333s42.666667-17.066667 59.733333 0l170.666667 170.666667c17.066667 17.066667 17.066667 42.666667 0 59.733333C1002.666667 550.4 994.133333 554.666667 981.333333 554.666667z"  /><path d="M810.666667 725.333333c-12.8 0-21.333333-4.266667-29.866667-12.8-17.066667-17.066667-17.066667-42.666667 0-59.733333l170.666667-170.666667c17.066667-17.066667 42.666667-17.066667 59.733333 0s17.066667 42.666667 0 59.733333l-170.666667 170.666667C832 721.066667 823.466667 725.333333 810.666667 725.333333z"  /></svg>